<?xml version="1.0" encoding="utf-8"?>
<!-- License: PD. Made by Mary Akveo: https://maryakveo.com/ -->
<svg fill="#000000" width="800px" height="800px" viewBox="0 0 24 24" id="trailer-left" data-name="Line Color" xmlns="http://www.w3.org/2000/svg" class="icon line-color"><path id="secondary" d="M10,7V5a1,1,0,0,1,1-1h1" style="fill: none; stroke: red; stroke-linecap: round; stroke-linejoin: round; stroke-width: 2;"></path><path id="primary" d="M19,18h1a1,1,0,0,0,1-1V13a1,1,0,0,0-1-1H12v6h3" style="fill: none; stroke: white; stroke-linecap: round; stroke-linejoin: round; stroke-width: 2;"></path><path id="primary-2" data-name="primary" d="M9,18h3V7H9.21A4,4,0,0,0,5.3,10.13L5,11.5l-1.24.31a1,1,0,0,0-.76,1V17a1,1,0,0,0,1,1H5" style="fill: none; stroke: white; stroke-linecap: round; stroke-linejoin: round; stroke-width: 2;"></path><path id="secondary-2" data-name="secondary" d="M17,16a2,2,0,1,1-2,2A2,2,0,0,1,17,16ZM7,16a2,2,0,1,1-2,2A2,2,0,0,1,7,16Z" style="fill: none; stroke: rgb(44, 169, 188); stroke-linecap: round; stroke-linejoin: round; stroke-width: 2;"></path></svg>